<?xml version="1.0" encoding="UTF-8"?>
<svg width="96px" height="100px" viewBox="0 0 96 100" version="1.1" xmlns="http://www.w3.org/2000/svg" xmlns:xlink="http://www.w3.org/1999/xlink">
    <title>zhaolab_logo</title>
    <g id="上科大剩余需求" stroke="none" stroke-width="1" fill="none" fill-rule="evenodd">
        <g id="21help" transform="translate(-72.000000, -97.000000)">
            <g id="zhaolab_logo" transform="translate(72.000000, 97.000000)">
                <path d="M91.7296455,90.4163057 L93.0987447,90.4163057 L93.0987447,35.6523382 L91.7296455,35.6523382 C91.7296455,30.3594007 87.4388887,26.0686439 82.1459512,26.0686439 C76.8530138,26.0686439 72.5622569,30.3594007 72.5622569,35.6523382 L71.1931577,35.6523382 L71.1931577,90.4163057 L72.5622569,90.4163057 C72.5622569,92.6846292 70.7232829,94.5236033 68.4549594,94.5236033 C66.1866358,94.5236033 64.3476618,92.6846292 64.3476618,90.4163057 L65.716761,90.4163057 L65.716761,35.6523382 L64.3476618,35.6523382 C64.3476618,30.3594007 60.0569049,26.0686439 54.7639675,26.0686439 C49.47103,26.0686439 45.1802732,30.3594007 45.1802732,35.6523382 L43.811174,35.6523382 L43.811174,90.4163057 L45.1802732,90.4163057 C45.1802732,92.6846292 43.3412992,94.5236033 41.0729756,94.5236033 C38.8046521,94.5236033 36.9656781,92.6846292 36.9656781,90.4163057 L38.3347772,90.4163057 L38.3347772,35.6523382 L36.9656781,35.6523382 C36.9656781,30.3594007 32.6749212,26.0686439 27.3819837,26.0686439 C22.0890463,26.0686439 17.7982894,30.3594007 17.7982894,35.6523382 L16.4291902,35.6523382 L16.4291902,90.4163057 L17.7982894,90.4163057 C17.7982894,92.6846292 15.9593154,94.5236033 13.6909919,94.5236033 C11.4226683,94.5236033 9.58369431,92.6846292 9.58369431,90.4163057 L10.9527935,90.4163057 L10.9527935,35.6523382 L9.58369431,35.6523382 C9.58369431,30.3594007 5.29293746,26.0686439 0,26.0686439 L0,31.5450406 C2.26832353,31.5450406 4.10729756,33.3840147 4.10729756,35.6523382 L2.73819837,35.6523382 L2.73819837,90.4163057 L4.10729756,90.4163057 C4.10729756,95.7092431 8.39805441,100 13.6909919,100 C18.9839293,100 23.2746862,95.7092431 23.2746862,90.4163057 L24.6437854,90.4163057 L24.6437854,35.6523382 L23.2746862,35.6523382 C23.2746862,33.3840147 25.1136602,31.5450406 27.3819837,31.5450406 C29.6503073,31.5450406 31.4892813,33.3840147 31.4892813,35.6523382 L30.1201821,35.6523382 L30.1201821,90.4163057 L31.4892813,90.4163057 C31.4892813,95.7092431 35.7800382,100 41.0729756,100 C46.3659131,100 50.6566699,95.7092431 50.6566699,90.4163057 L52.0257691,90.4163057 L52.0257691,35.6523382 L50.6566699,35.6523382 C50.6566699,33.3840147 52.495644,31.5450406 54.7639675,31.5450406 C57.032291,31.5450406 58.8712651,33.3840147 58.8712651,35.6523382 L57.5021659,35.6523382 L57.5021659,90.4163057 L58.8712651,90.4163057 C58.8712651,95.7092431 63.1620219,100 68.4549594,100 C73.7478968,100 78.0386537,95.7092431 78.0386537,90.4163057 L79.4077529,90.4163057 L79.4077529,35.6523382 L78.0386537,35.6523382 C78.0386537,33.3840147 79.8776277,31.5450406 82.1459512,31.5450406 C84.4142748,31.5450406 86.2532488,33.3840147 86.2532488,35.6523382 L84.8841496,35.6523382 L84.8841496,90.4163057 L86.2532488,90.4163057 C86.2532488,95.7092431 90.5440057,100 95.8369431,100 L95.8369431,94.5236033 C93.5686196,94.5236033 91.7296455,92.6846292 91.7296455,90.4163057" id="Fill-1" fill="#66CCFF"></path>
                <g id="编组" transform="translate(15.649561, 5.523606)" fill="#000000">
                    <path d="M31.2278477,25.4934008 C30.256335,24.1626364 28.5361987,23.4928731 26.8494685,23.9452235 C26.6408178,24.0010827 26.4436675,24.0761093 26.2519936,24.1609935 L22.9535599,20.8620121 C23.3210261,20.0339809 23.4196013,19.0799926 23.1671394,18.1364094 C22.9141298,17.1933739 22.3517039,16.4162732 21.6195096,15.8828722 L22.8265075,11.3768929 C23.0346106,11.3544397 23.2432613,11.320486 23.451912,11.2646268 C25.1386422,10.8128241 26.2936143,9.37307935 26.4694066,7.73508908 L30.9753858,6.5275436 C31.9468986,7.85830801 33.6670348,8.52752369 35.353765,8.07572096 C35.5624158,8.01986171 35.7601137,7.94428744 35.9512399,7.85995093 L39.2496737,11.1583847 C38.8822075,11.9869635 38.7836323,12.9409518 39.0360942,13.884535 C39.2891038,14.8281182 39.8515297,15.6046712 40.5842716,16.1380723 L39.3767261,20.6440515 C39.168623,20.6665047 38.9599723,20.6999107 38.7513216,20.75577 C37.0645914,21.2081204 35.9096193,22.6478651 35.733827,24.2858553 L31.2278477,25.4934008 Z M54.8612379,33.2698842 L54.0956376,30.4139433 L51.842648,31.0174422 C50.8711352,29.6866778 49.1515467,29.0169145 47.4642688,29.4687172 C47.2556181,29.5245765 47.0579202,29.6001507 46.8667939,29.6844873 L43.5683602,26.3860535 C43.9358264,25.5580223 44.0344015,24.604034 43.7819396,23.6604508 C43.5289301,22.7168677 42.9665042,21.939767 42.2337623,21.4063659 L43.4413078,16.9003867 C43.6494108,16.8779335 43.8580616,16.8445274 44.0667123,16.7886682 C46.2578186,16.2015985 47.5579152,13.9491565 46.9708455,11.7580501 C46.3837757,9.5669438 44.1318814,8.26684721 41.9407751,8.85391694 C41.7321243,8.90977619 41.5344264,8.98535046 41.3427525,9.06968697 L38.0443188,5.77125321 C38.411785,4.94322202 38.5109078,3.98868607 38.2578982,3.04565055 C37.6708285,0.853996568 35.4189342,-0.44610002 33.2278278,0.140969711 C31.54055,0.593320083 30.3861256,2.03306479 30.2097856,3.6716027 L25.704354,4.87860054 C24.7328412,3.54783613 23.012705,2.87807281 21.3254271,3.33042318 C21.1173241,3.38628242 20.9196261,3.46130906 20.7284999,3.54564557 L19.0779139,1.89560723 L16.986478,3.98649551 L18.6348734,5.63489093 C18.2674072,6.46346976 18.168832,7.41745807 18.4212939,8.36049359 C18.6743035,9.30407675 19.2367294,10.0806298 19.9689237,10.6145785 L18.7619258,15.1205577 C18.5538227,15.143011 18.345172,15.176417 18.1365213,15.2322762 C16.4497911,15.684079 15.294819,17.1243713 15.1190267,18.7623616 L12.8660371,19.3658605 L13.6310897,22.222349 L15.8840793,21.6188501 C16.8555921,22.9496145 18.5757283,23.6188302 20.2624585,23.1670275 C20.4711092,23.1111682 20.6688072,23.035594 20.8599334,22.9512575 L24.1583672,26.2496912 C23.790901,27.07827 23.6923258,28.0322584 23.9453353,28.9752939 C24.5324051,31.1664002 26.7842994,32.4670444 28.9754058,31.8799747 C30.6626836,31.4276243 31.817108,29.9878796 31.993448,28.3493417 L36.4988796,27.1423439 C37.4703924,28.4731083 39.1905286,29.1428716 40.8778064,28.6905212 C41.0859095,28.634662 41.2836074,28.5596354 41.4752813,28.4747512 L44.7737151,31.773185 C44.4062489,32.6017638 44.3071261,33.5557521 44.5601356,34.4993353 C45.1472054,36.6904416 47.3990997,37.9905382 49.590206,37.4034685 C51.2774839,36.9516657 52.4319083,35.511921 52.6082483,33.8733831 L54.8612379,33.2698842 Z" id="Fill-3"></path>
                    <path d="M8.07572331,33.227716 C7.82271378,32.2841328 7.26028784,31.5075797 6.52809359,30.9741787 L7.13104487,28.7222843 L4.27455633,27.9566841 L3.67050977,30.2113166 C3.46240669,30.2343175 3.25375597,30.2677235 3.04510526,30.3235828 C0.853998918,30.9106525 -0.44609767,33.1625468 0.140972062,35.3536532 C0.728041793,37.5447595 2.98048378,38.8454037 5.17159012,38.258334 C7.36269645,37.6712643 8.66279304,35.4188223 8.07572331,33.227716" id="Fill-5"></path>
                </g>
                <g id="编组" transform="translate(18.838686, 0.000000)" fill="#FF0000">
                    <path d="M61.2076698,34.7076598 C60.6206001,32.5165534 58.3681581,31.2164568 56.1770518,31.8035266 C54.4903216,32.2553293 53.3353495,33.695074 53.1595571,35.3336119 L50.9065675,35.9371108 L51.6721678,38.7935994 L53.9251574,38.1901005 C54.8966702,39.5203172 56.6162588,40.1900805 58.3035366,39.7382778 C60.494643,39.1512081 61.7947395,36.8987661 61.2076698,34.7076598" id="Fill-7"></path>
                    <path d="M10.4420743,27.7458999 L9.67702172,24.889959 L7.4240321,25.4934579 C6.45197168,24.1626935 4.7323831,23.4929302 3.04510526,23.9452806 C0.853998918,24.5323503 -0.44609767,26.7842446 0.140972062,28.975351 C0.393981591,29.9189341 0.956407537,30.6954872 1.68860178,31.2288883 L1.0856505,33.4807826 L3.94213905,34.2458352 L4.54618561,31.9917503 C4.75428868,31.9692971 4.9629394,31.9353434 5.17159012,31.8794842 C6.85832031,31.4276815 8.01329239,29.9879367 8.18908472,28.3493988 L10.4420743,27.7458999 Z" id="Fill-9"></path>
                    <path d="M15.888789,7.41910334 L14.2403936,5.77070792 C14.6078598,4.94267673 14.7069826,3.98868842 14.4539731,3.04510526 C13.8669033,0.853998918 11.615009,-0.44609767 9.42390266,0.140972062 C7.23279632,0.728041793 5.9321521,2.98048378 6.51922183,5.17159012 C7.10629156,7.36269645 9.35873354,8.66279304 11.5498399,8.07572331 C11.757943,8.01986406 11.9556409,7.94428979 12.1473148,7.85995328 L13.7973531,9.51053926 L15.888789,7.41910334 Z" id="Fill-11"></path>
                </g>
            </g>
        </g>
    </g>
</svg>